<?xml version="1.0" standalone="no"?>
<!DOCTYPE svg PUBLIC "-//W3C//DTD SVG 20010904//EN"
 "http://www.w3.org/TR/2001/REC-SVG-20010904/DTD/svg10.dtd">
<svg version="1.0" xmlns="http://www.w3.org/2000/svg"
 width="763.000000pt" height="172.000000pt" viewBox="0 0 763.000000 172.000000"
 preserveAspectRatio="xMidYMid meet">

<g transform="translate(0.000000,172.000000) scale(0.100000,-0.100000)"
fill="#003e74" stroke="none">
<path d="M10 795 l0 -785 1015 0 1015 0 0 785 0 785 -1015 0 -1015 0 0 -785z
m1980 0 l0 -745 -970 0 -970 0 0 745 0 745 970 0 970 0 0 -745z"/>
<path d="M100 1225 l0 -275 610 0 610 0 0 275 0 275 -610 0 -610 0 0 -275z"/>
<path d="M1420 800 l0 -700 275 0 275 0 0 700 0 700 -275 0 -275 0 0 -700z
m510 5 l0 -655 -230 0 -230 0 0 655 0 655 230 0 230 0 0 -655z"/>
<path d="M100 505 l0 -405 600 0 600 0 0 405 0 405 -600 0 -600 0 0 -405z"/>
<path d="M3803 1398 c-6 -7 -69 -169 -140 -360 l-131 -348 114 0 114 0 17 60
16 61 126 -3 125 -3 17 -55 16 -55 117 -3 c64 -1 116 -1 116 0 0 2 -60 163
-134 358 l-133 355 -115 3 c-84 2 -118 -1 -125 -10z m155 -305 c18 -60 32
-114 32 -120 0 -9 -22 -13 -75 -13 l-74 0 15 48 c8 26 24 80 36 120 11 39 24
72 27 72 4 0 21 -48 39 -107z"/>
<path d="M4390 1050 l0 -360 110 0 110 0 0 146 0 147 32 -7 c45 -9 57 -24 131
-161 l65 -120 127 -3 126 -3 -57 112 c-61 120 -103 175 -142 190 -24 9 -23 11
27 36 71 35 104 85 109 167 5 78 -20 134 -77 171 -49 33 -150 45 -383 45
l-178 0 0 -360z m399 186 c30 -27 27 -70 -5 -95 -22 -17 -41 -21 -100 -21
l-74 0 0 71 0 71 79 -3 c60 -3 84 -9 100 -23z"/>
<path d="M5107 1403 c-4 -3 -7 -44 -7 -90 l0 -83 115 0 115 0 0 -270 0 -270
110 0 110 0 0 270 0 270 115 0 116 0 -3 88 -3 87 -331 3 c-182 1 -333 -1 -337
-5z"/>
<path d="M2738 1149 c-16 -9 -18 -31 -18 -230 l0 -219 24 -11 c17 -8 29 -8 45
0 20 11 21 19 21 161 l0 150 37 41 c34 37 40 40 82 37 46 -2 46 -2 49 31 4 40
-9 51 -60 51 -30 0 -47 -8 -78 -36 l-40 -36 0 30 c0 39 -27 52 -62 31z"/>
<path d="M3087 1153 c-18 -5 -19 -16 -15 -181 4 -191 9 -211 63 -262 22 -21
36 -25 89 -25 54 0 67 4 106 33 l45 33 3 -30 c3 -32 27 -46 56 -35 14 5 16 32
16 234 0 220 -1 229 -20 235 -11 3 -29 3 -40 0 -19 -6 -20 -15 -20 -163 -1
-118 -4 -162 -15 -175 -25 -33 -78 -67 -106 -67 -78 0 -91 32 -97 235 -5 178
-7 183 -65 168z"/>
<path d="M2204 477 c-47 -41 -32 -139 23 -153 31 -8 74 5 81 24 3 11 0 12 -16
3 -48 -25 -92 3 -92 59 0 54 55 91 88 58 6 -6 15 -8 19 -4 11 11 -26 36 -53
36 -13 0 -35 -10 -50 -23z"/>
<path d="M2365 478 c-47 -41 -33 -141 21 -154 38 -10 87 8 101 36 47 93 -46
183 -122 118z m89 -14 c9 -9 16 -32 16 -54 0 -44 -20 -70 -55 -70 -28 0 -55
34 -55 70 0 58 58 91 94 54z"/>
<path d="M2540 410 c0 -53 4 -90 10 -90 6 0 10 31 10 73 l1 72 41 -72 c57 -99
68 -96 68 17 0 53 -4 90 -10 90 -6 0 -10 -31 -10 -72 l0 -73 -40 73 c-56 100
-70 96 -70 -18z"/>
<path d="M2732 488 c-24 -24 -14 -57 28 -83 22 -14 40 -29 40 -34 0 -19 -31
-33 -60 -27 -37 7 -40 -11 -4 -20 45 -11 79 7 82 43 3 29 -1 34 -38 53 -51 26
-52 55 -2 55 18 0 31 4 29 10 -5 15 -60 18 -75 3z"/>
<path d="M2830 490 c0 -5 14 -10 30 -10 l30 0 0 -80 c0 -47 4 -80 10 -80 6 0
10 33 10 80 l0 80 30 0 c17 0 30 5 30 10 0 6 -30 10 -70 10 -40 0 -70 -4 -70
-10z"/>
<path d="M3000 410 c0 -53 4 -90 10 -90 6 0 10 18 10 40 0 22 4 40 9 40 25 0
41 -15 51 -46 6 -19 18 -34 26 -34 12 0 12 6 -2 38 -20 48 -20 43 -4 76 13 26
13 30 -9 47 -13 11 -38 19 -57 19 l-34 0 0 -90z m75 40 c0 -20 -6 -26 -27 -28
-25 -3 -28 0 -28 28 0 28 3 31 28 28 21 -2 27 -8 27 -28z"/>
<path d="M3152 431 c2 -50 9 -75 22 -90 23 -25 63 -27 94 -5 19 13 22 24 22
90 0 43 -4 74 -10 74 -6 0 -10 -29 -10 -68 0 -72 -10 -92 -45 -92 -35 0 -45
20 -45 92 0 56 -3 68 -16 68 -14 0 -16 -11 -12 -69z"/>
<path d="M3364 477 c-47 -41 -32 -139 23 -153 31 -8 74 5 81 24 3 11 0 12 -16
3 -48 -25 -92 3 -92 59 0 54 55 91 88 58 6 -6 15 -8 19 -4 11 11 -26 36 -53
36 -13 0 -35 -10 -50 -23z"/>
<path d="M3524 477 c-47 -41 -32 -139 23 -153 31 -8 74 5 81 24 3 11 0 12 -16
3 -48 -25 -92 3 -92 59 0 54 55 91 88 58 6 -6 15 -8 19 -4 11 11 -26 36 -53
36 -13 0 -35 -10 -50 -23z"/>
<path d="M3670 410 c0 -53 4 -90 10 -90 6 0 10 37 10 90 0 53 -4 90 -10 90 -6
0 -10 -37 -10 -90z"/>
<path d="M3755 478 c-47 -41 -33 -141 21 -154 38 -10 87 8 101 36 47 93 -46
183 -122 118z m89 -14 c9 -9 16 -32 16 -54 0 -44 -20 -70 -55 -70 -28 0 -55
34 -55 70 0 58 58 91 94 54z"/>
<path d="M3930 410 c0 -53 4 -90 10 -90 6 0 10 31 10 73 l1 72 41 -72 c57 -99
68 -96 68 17 0 53 -4 90 -10 90 -6 0 -10 -31 -10 -72 l0 -73 -40 73 c-56 100
-70 96 -70 -18z"/>
<path d="M4190 410 c0 -53 4 -90 10 -90 6 0 10 37 10 90 0 53 -4 90 -10 90 -6
0 -10 -37 -10 -90z"/>
<path d="M4260 410 c0 -53 4 -90 10 -90 6 0 10 31 10 73 l1 72 41 -72 c57 -99
68 -96 68 17 0 53 -4 90 -10 90 -6 0 -10 -31 -10 -72 l0 -73 -40 73 c-56 100
-70 96 -70 -18z"/>
<path d="M4450 410 l0 -90 39 0 c59 0 96 35 96 90 0 55 -37 90 -96 90 l-39 0
0 -90z m90 50 c41 -41 14 -120 -41 -120 l-29 0 0 70 c0 68 1 70 25 70 14 0 34
-9 45 -20z"/>
<path d="M4612 431 c2 -50 9 -75 22 -90 23 -25 63 -27 94 -5 19 13 22 24 22
90 0 43 -4 74 -10 74 -6 0 -10 -29 -10 -68 0 -72 -10 -92 -45 -92 -35 0 -45
20 -45 92 0 56 -3 68 -16 68 -14 0 -16 -11 -12 -69z"/>
<path d="M4812 488 c-24 -24 -14 -57 28 -83 22 -14 40 -29 40 -34 0 -19 -31
-33 -60 -27 -37 7 -40 -11 -4 -20 45 -11 79 7 82 43 3 29 -1 34 -38 53 -51 26
-52 55 -2 55 18 0 31 4 29 10 -5 15 -60 18 -75 3z"/>
<path d="M4910 490 c0 -5 14 -10 30 -10 l30 0 0 -80 c0 -47 4 -80 10 -80 6 0
10 33 10 80 l0 80 30 0 c17 0 30 5 30 10 0 6 -30 10 -70 10 -40 0 -70 -4 -70
-10z"/>
<path d="M5080 410 c0 -53 4 -90 10 -90 6 0 10 18 10 40 0 22 4 40 9 40 25 0
41 -15 51 -46 6 -19 18 -34 26 -34 12 0 12 6 -2 38 -20 48 -20 43 -4 76 13 26
13 30 -9 47 -13 11 -38 19 -57 19 l-34 0 0 -90z m75 40 c0 -20 -6 -26 -27 -28
-25 -3 -28 0 -28 28 0 28 3 31 28 28 21 -2 27 -8 27 -28z"/>
<path d="M5240 410 c0 -53 4 -90 10 -90 6 0 10 37 10 90 0 53 -4 90 -10 90 -6
0 -10 -37 -10 -90z"/>
<path d="M5341 478 c-4 -13 -18 -49 -30 -81 -24 -65 -25 -77 -11 -77 5 0 12
11 16 25 5 21 12 25 45 25 33 0 41 -4 49 -25 9 -24 30 -35 30 -16 0 5 -14 46
-31 90 -32 83 -52 101 -68 59z m49 -75 c0 -8 -12 -13 -30 -13 -19 0 -28 4 -25
13 2 6 10 26 16 42 l11 30 14 -30 c7 -16 13 -36 14 -42z"/>
<path d="M5480 410 l0 -90 45 0 c25 0 45 5 45 10 0 6 -16 10 -35 10 l-35 0 0
80 c0 47 -4 80 -10 80 -6 0 -10 -37 -10 -90z"/>
<path d="M5600 410 c0 -53 4 -90 10 -90 6 0 10 37 10 90 0 53 -4 90 -10 90 -6
0 -10 -37 -10 -90z"/>
<path d="M5650 490 c0 -5 20 -10 45 -10 l45 0 -45 -69 c-25 -38 -45 -74 -45
-80 0 -7 24 -11 60 -11 70 0 82 17 15 22 l-45 3 45 70 c24 39 45 73 45 78 0 4
-27 7 -60 7 -33 0 -60 -4 -60 -10z"/>
<path d="M5841 478 c-4 -13 -18 -49 -30 -81 -24 -65 -25 -77 -11 -77 5 0 12
11 16 25 5 21 12 25 45 25 33 0 41 -4 49 -25 9 -24 30 -35 30 -16 0 5 -14 46
-31 90 -32 83 -52 101 -68 59z m49 -75 c0 -8 -12 -13 -30 -13 -19 0 -28 4 -25
13 2 6 10 26 16 42 l11 30 14 -30 c7 -16 13 -36 14 -42z"/>
<path d="M5980 410 l0 -90 39 0 c59 0 96 35 96 90 0 55 -37 90 -96 90 l-39 0
0 -90z m90 50 c41 -41 14 -120 -41 -120 l-29 0 0 70 c0 68 1 70 25 70 14 0 34
-9 45 -20z"/>
<path d="M6191 478 c-4 -13 -18 -49 -30 -81 -24 -65 -25 -77 -11 -77 5 0 12
11 16 25 5 21 12 25 45 25 33 0 41 -4 49 -25 9 -24 30 -35 30 -16 0 5 -14 46
-31 90 -32 83 -52 101 -68 59z m49 -75 c0 -8 -12 -13 -30 -13 -19 0 -28 4 -25
13 2 6 10 26 16 42 l11 30 14 -30 c7 -16 13 -36 14 -42z"/>
</g>
</svg>
